PathFileType	4	(X/Y/Z)	C:/Users/beibeiliu/ov580/test_trc/User3\sequence.20_training_dense_left.trc
DataRate	CameraRate	NumFrames	NumMarkers	Units	OrigDataRate	OrigDataStartFrame	OrigNumFrames
120	120	7	19	mm	120	303	346
Frame#	Time	ThumbCMC			ThumbMCP			ThumbIP			ThumbTip			IndexMCP			IndexPIP			IndexTip			MiddleMCP			MiddlePIP			MiddleTip			RingMCP			RingPIP			RingTip			PinkyMCP			PinkyPIP			PinkyTip			BackHand1			BackHand2			BackHand3	
		X0	Y0	Z0	X1	Y1	Z1	X2	Y2	Z2	X3	Y3	Z3	X4	Y4	Z4	X5	Y5	Z5	X6	Y6	Z6	X7	Y7	Z7	X8	Y8	Z8	X9	Y9	Z9	X10	Y10	Z10	X11	Y11	Z11	X12	Y12	Z12	X13	Y13	Z13	X14	Y14	Z14	X15	Y15	Z15	X16	Y16	Z16	X17	Y17	Z17	X18	Y18	Z18	
302	2.51667	-206.481	-21.9208	52.5832	-181.347	-23.8949	25.7565	-176.869	-25.1209	-0.843465	-196.526	-25.5301	-27.7975	-194.482	23.1455	-10.2995	-182.427	6.23467	-36.428	-188.351	-21.5463	-12.3075	-213.726	25.8064	-26.6246	-200.94	3.60089	-47.1873	-206.723	-23.0478	-22.3686	-229.214	20.863	-28.6667	-224.043	1.14336	-49.6524	-222.292	-25.2203	-23.3366	-248.98	9.97595	-24.5291	-235.297	-4.1664	-43.6028	-236.917	-31.3859	-30.4419	-257.115	12.0832	24.3216	-270.253	0.676003	45.6431	-231.359	6.84284	50.6174	
303	2.525	-207.772	-23.6293	52.2562	-179.889	-24.748	27.2682	-177.097	-25.7305	-1.22436	-192.343	-28.2415	-26.7388	-198.078	21.4045	-12.4011	-185.016	1.78297	-37.4388	-187.797	-22.1833	-15.9227	-211.026	25.3978	-28.8309	-202.19	1.38191	-48.0796	-206.414	-24.2945	-18.882	-232.754	17.1953	-27.3504	-218.669	0.316319	-48.5624	-221.484	-25.9485	-25.7105	-247.487	7.68484	-22.6335	-236.257	-9.20578	-45.2459	-236.838	-32.1416	-31.251	-254.725	12.3088	21.1349	-269.094	2.09816	44.1886	-231.927	6.28538	49.0624	
304	2.53333	-208.015	-22.8526	50.5708	-179.679	-26.714	27.8138	-177.663	-24.8317	-2.72042	-195.749	-26.866	-24.0914	-196.427	19.7877	-13.4463	-184.231	1.0942	-37.223	-189.919	-23.3846	-16.6217	-214.432	22.7899	-27.578	-202.791	5.17676	-49.6554	-210.364	-25.4652	-22.0766	-229.095	17.357	-30.1214	-217.543	-4.15642	-48.7022	-221.95	-26.8482	-28.8438	-247.866	6.95539	-26.1994	-234.854	-8.75545	-43.5474	-236.239	-35.1404	-29.6297	-254.756	11.0825	25.5518	-264.207	-0.843819	45.8584	-228.301	7.03308	49.0135	
305	2.54167	-207.247	-20.9532	50.2057	-184.685	-25.4813	28.4403	-175.091	-25.2476	-3.79086	-194.057	-28.3157	-26.6806	-192.83	20.8041	-15.45	-183.902	2.68655	-38.3193	-189.761	-24.4501	-13.7175	-215.835	22.9218	-25.3183	-200.78	5.07231	-48.9287	-207.224	-25.3701	-20.8158	-232.657	16.2101	-29.2331	-224.223	-2.02846	-50.9857	-220.984	-27.169	-27.1873	-252.768	4.99855	-24.8086	-236.724	-9.9185	-45.3367	-236.512	-36.4183	-26.7891	-256.355	9.30052	23.0355	-268.802	1.44307	43.6398	-232.335	6.41252	49.2091	
306	2.55	-209.763	-21.9433	52.4774	-185.96	-24.0981	26.7046	-176.919	-23.6319	-5.60554	-191.548	-28.2311	-26.5913	-198.624	21.0306	-15.5033	-186.484	0.801701	-37.6319	-190.927	-22.5054	-15.9861	-216.081	24.2197	-26.4977	-203.113	4.81965	-49.0947	-209.245	-24.5956	-20.015	-234.306	17.093	-31.1802	-221.666	-5.24636	-48.9049	-224.87	-27.2864	-27.948	-250.403	5.40495	-23.0528	-236.717	-10.4056	-43.5451	-239.116	-35.2244	-28.4019	-256.383	11.2551	22.2786	-269.186	0.584177	45.0268	-235.769	8.37228	47.0378	
307	2.55833	-207.057	-20.4011	54.0325	-182.079	-25.4079	28.6878	-178.005	-24.3752	-2.92431	-194.872	-26.5867	-26.5004	-198.84	23.1069	-14.1978	-188.455	3.58507	-38.5719	-192.682	-21.5057	-19.1959	-218.424	23.8417	-27.7647	-205.769	1.4012	-49.8441	-211.454	-23.8873	-22.4128	-232.583	18.7944	-29.1916	-222.267	-1.89535	-48.8126	-227.155	-26.1127	-28.8265	-252.908	6.5737	-26.1058	-239.329	-7.70212	-44.6854	-240.048	-35.6015	-27.1339	-259.395	10.1125	22.7016	-267.966	1.57906	45.2399	-233.002	9.45669	49.5161	
308	2.56667	-209.477	-19.0312	49.44	-184.523	-24.4388	28.5589	-175.574	-25.2069	-3.55462	-192.541	-28.0795	-26.4247	-198.906	22.993	-14.2679	-185.219	3.61355	-38.1921	-192.213	-20.6348	-18.0813	-219.03	25.3829	-26.4642	-205.44	4.96816	-49.0933	-213.19	-23.8688	-25.4399	-235.96	18.783	-30.9707	-226.647	-0.775276	-50.477	-224.393	-23.817	-28.6758	-257.103	6.46869	-24.228	-241.916	-9.45527	-45.0911	-241.249	-33.6958	-31.3726	-257.536	11.9562	24.1005	-271.438	0.400306	44.7789	-236.237	9.10974	45.7519	
